<?xml version="1.0" encoding="utf-8"?>
<svg version="1.1" xmlns:xlink="http://www.w3.org/1999/xlink" width="97px" height="20px" xmlns="http://www.w3.org/2000/svg">
  <g transform="matrix(1 0 0 1 -325 -825 )">
    <path d="M 0 15.6521739130435  L 0 4.3478260869565  C 0 1.91304347826087  1.94 0  4.40909090909093 0  L 30.2757575757565 0  L 57.9060606060617 0  L 59.0818181818182 0  L 70.2515151515162 0  L 72.0151515151526 0  L 85.7999999999993 0  L 92.5909090909091 0  C 95.06 0  97 1.91304347826087  97 4.3478260869565  L 97 15.6521739130435  C 97 18.0869565217391  95.06 20  92.5909090909091 20  L 4.40909090909093 20  C 1.94 20  0 18.0869565217391  0 15.6521739130435  Z " fill-rule="nonzero" fill="#d9001b" stroke="none" transform="matrix(1 0 0 1 325 825 )" />
  </g>
</svg>