<?xml version="1.0" encoding="utf-8"?>
<svg version="1.1" xmlns:xlink="http://www.w3.org/1999/xlink" width="211px" height="149px" xmlns="http://www.w3.org/2000/svg">
  <g transform="matrix(1 0 0 1 -66 -576 )">
    <path d="M 66 576  L 277 576  L 277 725  L 66 725  L 66 576  " fill-rule="nonzero" fill="#cccccc" stroke="none" />
    <path d="M 76 586  L 267 586  L 267 715  L 76 715  L 76 586  " fill-rule="nonzero" fill="#ffffff" stroke="none" />
    <path d="M 186.895 620.7  C 180.637 620.7  175.72 615.783  175.72 609.525  C 175.72 603.267  180.637 598.35  186.895 598.35  C 193.153 598.35  198.07 603.267  198.07 609.525  C 198.07 615.783  193.153 620.7  186.895 620.7  " fill-rule="nonzero" fill="#cccccc" stroke="none" />
    <path d="M 80 712  L 80 644.9  L 126 614.4  L 190.4 660.309004739337  L 227.2 632.7  L 264 660.309004739337  L 264 712  L 80 712  " fill-rule="nonzero" fill="#169bd5" stroke="none" />
  </g>
</svg>