<?xml version="1.0" encoding="utf-8"?>
<svg version="1.1" xmlns:xlink="http://www.w3.org/1999/xlink" width="658px" height="362px" xmlns="http://www.w3.org/2000/svg">
  <g transform="matrix(1 0 0 1 -41 -66 )">
    <path d="M 41 66  L 699 66  L 699 428  L 41 428  L 41 66  " fill-rule="nonzero" fill="#cccccc" stroke="none" />
    <path d="M 66 91  L 674 91  L 674 403  L 66 403  L 66 91  " fill-rule="nonzero" fill="#ffffff" stroke="none" />
    <path d="M 410.31 174.6  C 395.106 174.6  383.16 162.654  383.16 147.45  C 383.16 132.246  395.106 120.3  410.31 120.3  C 425.514 120.3  437.46 132.246  437.46 147.45  C 437.46 162.654  425.514 174.6  410.31 174.6  " fill-rule="nonzero" fill="#cccccc" stroke="none" />
    <path d="M 75 394  L 75 232.3  L 222.5 158.8  L 429 296.953191489362  L 547 202.9  L 665 296.953191489362  L 665 394  L 75 394  " fill-rule="nonzero" fill="#169bd5" stroke="none" />
  </g>
</svg>